<svg xmlns="http://www.w3.org/2000/svg" width="18" height="18" viewBox="0 0 18 18">
    <defs>
        <linearGradient id="a" x1="50%" x2="50%" y1="0%" y2="100%">
            <stop offset="0%" stop-color="#4BA1FF"/>
            <stop offset="100%" stop-color="#0079E1"/>
        </linearGradient>
    </defs>
    <path fill="url(#a)" fill-rule="evenodd" d="M.166 17.833A.518.518 0 0 1 0 17.46c0-.103.009-.18.026-.231L5.983.746C6.153.249 6.494 0 7.006 0h3.988c.512 0 .853.249 1.023.746l5.957 16.483a.784.784 0 0 1 .026.231.518.518 0 0 1-.166.373.512.512 0 0 1-.37.167h-3.325c-.409 0-.699-.189-.87-.566l-.92-2.494H5.651l-.92 2.494c-.171.377-.461.566-.87.566H.537a.512.512 0 0 1-.37-.167zm6.558-6.75h4.552L9 4.526l-2.276 6.557z"/>
</svg>
