<svg xmlns="http://www.w3.org/2000/svg" width="54" height="34" viewBox="0 0 54 34">
    <path fill="#E8F2FA" fill-rule="evenodd" d="M23.508 12.91c0 4.711-1.828 9.035-5.485 12.973-3.656 3.984-8.168 6.41-13.535 7.277l-.633-.457c1.5-.867 2.754-2.103 3.762-3.709a11.675 11.675 0 0 0 1.758-5.29C3.141 21.874.023 18.136.023 12.487c0-3.445 1.149-6.351 3.446-8.718C5.742 1.379 8.555.184 11.906.184c3.352 0 6.117 1.195 8.297 3.586 2.203 2.343 3.305 5.39 3.305 9.14zm30.094 0c0 4.688-1.84 9.012-5.52 12.973-3.656 3.984-8.156 6.41-13.5 7.277l-.633-.457c1.453-.844 2.696-2.074 3.727-3.691a11.559 11.559 0 0 0 1.793-5.309c-6.235-1.828-9.352-5.566-9.352-11.215 0-3.445 1.149-6.351 3.445-8.718C35.837 1.379 38.648.184 42 .184c3.375 0 6.14 1.195 8.297 3.586 2.156 2.367 3.258 5.414 3.305 9.14z"/>
</svg>
