<svg xmlns="http://www.w3.org/2000/svg" width="12" height="18" viewBox="0 0 12 18">
    <defs>
        <linearGradient id="a" x1="50%" x2="50%" y1="0%" y2="100%">
            <stop offset="0%" stop-color="#4BA1FF"/>
            <stop offset="100%" stop-color="#0079E1"/>
        </linearGradient>
    </defs>
    <path fill="url(#a)" fill-rule="evenodd" d="M5 3v5H4a1 1 0 1 0 0 2h1v5H1a1 1 0 0 0-1 1v1a1 1 0 0 0 1 1h10a1 1 0 0 0 1-1v-1a1 1 0 0 0-1-1H7v-5h1a1 1 0 1 0 0-2H7V3h4a1 1 0 0 0 1-1V1a1 1 0 0 0-1-1H1a1 1 0 0 0-1 1v1a1 1 0 0 0 1 1h4z"/>
</svg>
